<svg width="491" height="111" viewBox="0 0 491 111" fill="none" xmlns="http://www.w3.org/2000/svg">
<path d="M272.157 33.2207C273.674 33.2207 275.052 32.998 276.289 32.5527C277.542 32.1074 278.474 31.6703 279.084 31.2415L282.251 37.5254C281.476 38.1852 280.148 38.8531 278.268 39.5294C276.404 40.2056 274.186 40.5437 271.613 40.5437C269.205 40.5437 266.945 40.1231 264.834 39.282C262.723 38.4408 260.859 37.2615 259.243 35.7442C257.643 34.2103 256.381 32.4207 255.458 30.3756C254.55 28.3139 254.097 26.0791 254.097 23.671C254.097 21.263 254.55 19.0282 255.458 16.9665C256.365 14.8883 257.618 13.0823 259.218 11.5484C260.834 10.0146 262.698 8.82703 264.809 7.98587C266.937 7.12822 269.205 6.69939 271.613 6.69939C274.186 6.69939 276.404 7.0375 278.268 7.71373C280.148 8.38996 281.476 9.05794 282.251 9.71767L279.084 16.0016C278.474 15.5563 277.542 15.1192 276.289 14.6904C275.052 14.2451 273.674 14.0224 272.157 14.0224C270.475 14.0224 269.007 14.2863 267.753 14.8141C266.5 15.3254 265.453 16.0346 264.611 16.9417C263.77 17.8489 263.143 18.8715 262.731 20.0095C262.319 21.1476 262.113 22.3433 262.113 23.5968C262.113 24.8668 262.319 26.0791 262.731 27.2336C263.143 28.3716 263.77 29.3942 264.611 30.3014C265.453 31.2085 266.5 31.9259 267.753 32.4537C269.007 32.965 270.475 33.2207 272.157 33.2207ZM297.344 7.29315H304.692L317.581 39.95H309.689L307.314 33.3939H294.746L292.346 39.95H284.43L297.344 7.29315ZM297.22 26.912H304.865L301.08 16.1996H301.005L297.22 26.912ZM320.044 7.29315H333.355C335.251 7.29315 336.942 7.68899 338.426 8.48067C339.911 9.27235 341.082 10.4186 341.939 11.9195C342.814 13.4039 343.251 15.177 343.251 17.2386C343.251 19.3003 342.879 20.9909 342.137 22.3103C341.412 23.6133 340.537 24.5947 339.515 25.2544C338.492 25.8976 337.544 26.2852 336.67 26.4172L344.611 39.95H336.299L329.223 26.9862H327.442V39.95H320.044V7.29315ZM327.442 21.865H330.707C332.027 21.865 333.181 21.5434 334.171 20.9002C335.161 20.2569 335.655 19.1189 335.655 17.486C335.655 15.8532 335.169 14.7234 334.196 14.0966C333.223 13.4534 332.076 13.1318 330.757 13.1318H327.442V21.865ZM349.475 7.29315H370.331V13.775H356.848V20.4301H370.207V26.7141H356.848V33.4681H370.331V39.95H349.475V7.29315ZM375.956 7.29315H387.831C389.926 7.29315 391.814 7.66425 393.496 8.40645C395.179 9.13216 396.515 10.2455 397.504 11.7463C398.51 13.2307 399.013 15.0945 399.013 17.3376C399.013 19.5642 398.51 21.4609 397.504 23.0278C396.515 24.5782 395.179 25.7657 393.496 26.5904C391.814 27.3985 389.926 27.8026 387.831 27.8026H383.353V39.95H375.956V7.29315ZM383.353 21.964H385.777C386.784 21.964 387.682 21.8155 388.474 21.5186C389.282 21.2218 389.926 20.7517 390.404 20.1085C390.882 19.4487 391.121 18.5828 391.121 17.5108C391.121 16.4222 390.882 15.5646 390.404 14.9378C389.926 14.2946 389.282 13.8328 388.474 13.5524C387.682 13.272 386.784 13.1318 385.777 13.1318H383.353V21.964ZM410.124 7.29315H417.471L430.361 39.95H422.469L420.094 33.3939H407.526L405.126 39.95H397.209L410.124 7.29315ZM410 26.912H417.645L413.859 16.1996H413.785L410 26.912ZM448.816 33.2207C450.334 33.2207 451.711 32.998 452.948 32.5527C454.201 32.1074 455.133 31.6703 455.743 31.2415L458.91 37.5254C458.135 38.1852 456.807 38.8531 454.927 39.5294C453.063 40.2056 450.845 40.5437 448.272 40.5437C445.864 40.5437 443.604 40.1231 441.493 39.282C439.382 38.4408 437.518 37.2615 435.902 35.7442C434.302 34.2103 433.04 32.4207 432.117 30.3756C431.21 28.3139 430.756 26.0791 430.756 23.671C430.756 21.263 431.21 19.0282 432.117 16.9665C433.024 14.8883 434.277 13.0823 435.877 11.5484C437.493 10.0146 439.357 8.82703 441.468 7.98587C443.596 7.12822 445.864 6.69939 448.272 6.69939C450.845 6.69939 453.063 7.0375 454.927 7.71373C456.807 8.38996 458.135 9.05794 458.91 9.71767L455.743 16.0016C455.133 15.5563 454.201 15.1192 452.948 14.6904C451.711 14.2451 450.334 14.0224 448.816 14.0224C447.134 14.0224 445.666 14.2863 444.412 14.8141C443.159 15.3254 442.112 16.0346 441.27 16.9417C440.429 17.8489 439.803 18.8715 439.39 20.0095C438.978 21.1476 438.772 22.3433 438.772 23.5968C438.772 24.8668 438.978 26.0791 439.39 27.2336C439.803 28.3716 440.429 29.3942 441.27 30.3014C442.112 31.2085 443.159 31.9259 444.412 32.4537C445.666 32.965 447.134 33.2207 448.816 33.2207ZM476.749 23.0773L489.169 39.95H480.336L470.292 25.675V39.95H462.895V7.29315H470.292V20.6528L479.545 7.29315H487.882L476.749 23.0773Z" fill="#6BBE5D"/>
<path d="M259.902 83.7V59.8999H270.204C272.335 59.8999 274.171 60.2513 275.712 60.954C277.254 61.6339 278.444 62.6199 279.282 63.912C280.121 65.204 280.54 66.7453 280.54 68.536C280.54 70.304 280.121 71.834 279.282 73.126C278.444 74.418 277.254 75.4153 275.712 76.118C274.171 76.798 272.335 77.138 270.204 77.138H262.962L265.41 74.656V83.7H259.902ZM265.41 75.268L262.962 72.65H269.898C271.598 72.65 272.868 72.2873 273.706 71.562C274.545 70.8366 274.964 69.828 274.964 68.536C274.964 67.2213 274.545 66.2013 273.706 65.476C272.868 64.7506 271.598 64.388 269.898 64.388H262.962L265.41 61.7699V75.268ZM300.793 83.7V59.8999H306.301V83.7H300.793ZM284.473 83.7V59.8999H289.981V83.7H284.473ZM289.573 73.942V69.284H301.201V73.942H289.573ZM308.804 83.7L319.412 59.8999H324.852L335.494 83.7H329.714L321.01 62.688H323.186L314.448 83.7H308.804ZM314.108 78.6L315.57 74.418H327.81L329.306 78.6H314.108ZM337.963 83.7V59.8999H348.129C351.438 59.8999 354.011 60.6706 355.847 62.212C357.683 63.7306 358.601 65.8386 358.601 68.536C358.601 70.304 358.182 71.834 357.343 73.126C356.504 74.3953 355.314 75.37 353.773 76.05C352.232 76.73 350.396 77.07 348.265 77.07H341.023L343.471 74.656V83.7H337.963ZM353.093 83.7L347.143 75.064H353.025L359.043 83.7H353.093ZM343.471 75.268L341.023 72.684H347.959C349.659 72.684 350.928 72.3213 351.767 71.596C352.606 70.848 353.025 69.828 353.025 68.536C353.025 67.2213 352.606 66.2013 351.767 65.476C350.928 64.7506 349.659 64.388 347.959 64.388H341.023L343.471 61.7699V75.268ZM362.965 83.7V59.8999H367.521L377.653 76.696H375.239L385.201 59.8999H389.723L389.791 83.7H384.623L384.589 67.822H385.541L377.585 81.184H375.103L366.977 67.822H368.133V83.7H362.965ZM392.31 83.7L402.918 59.8999H408.358L419 83.7H413.22L404.516 62.688H406.692L397.954 83.7H392.31ZM397.614 78.6L399.076 74.418H411.316L412.812 78.6H397.614ZM432.527 84.108C430.691 84.108 428.979 83.8133 427.393 83.224C425.829 82.612 424.469 81.7506 423.313 80.64C422.157 79.5293 421.25 78.226 420.593 76.73C419.958 75.234 419.641 73.5906 419.641 71.8C419.641 70.0093 419.958 68.366 420.593 66.8699C421.25 65.3739 422.157 64.0706 423.313 62.96C424.491 61.8493 425.863 60.9993 427.427 60.4099C428.991 59.798 430.702 59.492 432.561 59.492C434.623 59.492 436.482 59.8546 438.137 60.58C439.814 61.2826 441.219 62.3253 442.353 63.708L438.817 66.972C438.001 66.0426 437.094 65.3513 436.097 64.898C435.099 64.422 434.011 64.184 432.833 64.184C431.722 64.184 430.702 64.3653 429.773 64.728C428.843 65.0906 428.039 65.6119 427.359 66.292C426.679 66.972 426.146 67.7766 425.761 68.706C425.398 69.6353 425.217 70.6666 425.217 71.8C425.217 72.9333 425.398 73.9646 425.761 74.894C426.146 75.8233 426.679 76.628 427.359 77.308C428.039 77.988 428.843 78.5093 429.773 78.872C430.702 79.2346 431.722 79.416 432.833 79.416C434.011 79.416 435.099 79.1893 436.097 78.736C437.094 78.26 438.001 77.546 438.817 76.594L442.353 79.858C441.219 81.2406 439.814 82.2946 438.137 83.02C436.482 83.7453 434.612 84.108 432.527 84.108ZM451.457 83.7V73.976L452.715 77.308L442.243 59.8999H448.091L456.115 73.262H452.749L460.807 59.8999H466.213L455.741 77.308L456.965 73.976V83.7H451.457Z" fill="#283A6C"/>
<path d="M88.2404 57.08H39.0404C38.8504 57.08 38.6704 57.09 38.4804 57.09C28.7404 57.09 20.7804 49.08 20.7404 39.22C20.7104 34.41 22.5704 29.88 25.9704 26.47C29.3604 23.08 33.8604 21.22 38.6504 21.22H88.2504L94.0604 0H39.5804C28.7504 0 18.3804 4.24999 11.1204 11.65C3.55043 19.37 -0.389574 29.59 0.0304261 40.41C0.420426 50.55 4.81042 60.01 12.4004 67.07C19.9504 74.09 29.8004 77.95 40.1204 77.95H82.5104L88.2504 57.08H88.2404Z" fill="url(#paint0_linear_1125_4)"/>
<path d="M149.35 57.3499L143.61 77.9299V77.9499H87.0104L92.7304 57.3499H110.57L112.71 48.6799C115.94 36.7399 126.78 28.4399 139.15 28.4399L131.53 57.3499H149.34H149.35Z" fill="url(#paint1_radial_1125_4)"/>
<path d="M124.99 80.1799L116.72 110.35H95.7404L97.1804 105.09C100.76 92.05 111.63 82.2999 124.99 80.1799Z" fill="url(#paint2_linear_1125_4)"/>
<path d="M234.66 39.95C234.07 60.91 216.14 77.95 194.72 77.95L147.7 77.93L153.44 57.35H196.29C205.69 57.35 213.84 49.57 214.45 40.33C214.75 35.65 212.8 30.24 209.5 26.56C209.3 26.35 209.1 26.13 208.89 25.93L208.86 25.9C208.66 25.7 208.48 25.52 208.27 25.32C205.28 22.58 201.11 21.25 195.51 21.25H136.55C127.53 21.25 120.5 28.97 115.98 37.4L123.9 8.7C124 8.35 124.12 8.00999 124.23 7.67999C125.01 5.61999 126.41 3.92 128.14 2.7C130.3 0.999997 133.04 0 135.96 0H195.69C197.77 0 199.83 0.15999 201.87 0.48999C210 1.75999 217.59 5.54999 223.31 11.29C225.07 13.07 226.64 14.97 228.01 17C232.56 23.7 234.9 31.64 234.67 39.96L234.66 39.95Z" fill="url(#paint3_linear_1125_4)"/>
<path d="M149.35 57.35L143.61 77.93H123.82C123.49 77.93 123.14 77.93 122.83 77.95C112.95 78.38 105.63 85.26 100.8 94.28C100.27 95.25 99.5504 96.97 99.3704 97.38L104.78 77.95L108.23 65.58C108.33 65.23 108.43 64.89 108.56 64.56C110.24 60.11 114.73 57.35 119.49 57.35H149.36H149.35Z" fill="url(#paint4_linear_1125_4)"/>
<defs>
<linearGradient id="paint0_linear_1125_4" x1="10.0704" y1="-12.11" x2="88.1504" y2="70.59" gradientUnits="userSpaceOnUse">
<stop stop-color="#3FA9DF"/>
<stop offset="1" stop-color="#365FAA"/>
</linearGradient>
<radialGradient id="paint1_radial_1125_4" cx="0" cy="0" r="1" gradientUnits="userSpaceOnUse" gradientTransform="translate(121.384 70.1783) rotate(-42.08) scale(36.55 25.2195)">
<stop stop-color="#3FA9DF"/>
<stop offset="0.23" stop-color="#3EA5DC"/>
<stop offset="0.47" stop-color="#3D99D3"/>
<stop offset="0.7" stop-color="#3A85C5"/>
<stop offset="0.93" stop-color="#3769B1"/>
<stop offset="1" stop-color="#365FAA"/>
</radialGradient>
<linearGradient id="paint2_linear_1125_4" x1="109.05" y1="82.7499" x2="113.11" y2="121.33" gradientUnits="userSpaceOnUse">
<stop stop-color="#365FAA"/>
<stop offset="1" stop-color="#3FA9DF"/>
</linearGradient>
<linearGradient id="paint3_linear_1125_4" x1="89.5704" y1="98.89" x2="234.78" y2="-9.42001" gradientUnits="userSpaceOnUse">
<stop stop-color="#83C445"/>
<stop offset="1" stop-color="#2D793D"/>
</linearGradient>
<linearGradient id="paint4_linear_1125_4" x1="88.8704" y1="97.96" x2="234.08" y2="-10.36" gradientUnits="userSpaceOnUse">
<stop stop-color="#83C445"/>
<stop offset="1" stop-color="#2D793D"/>
</linearGradient>
</defs>
</svg>
